# xmcd
# 
# Track frame offsets:
#     150
#     51823
#     85306
#     139654
#     181825
#     219850
#     259453
#     291595
# 
# Disc length: 4475
# 
# Revision: 1
# Processed by: cddbd v1.5.2PL0 Copyright (c) Steve Scherf et al.
# Submitted via: BonkEnc v1.0.8
# 
DISCID=78117908
DTITLE=Fernando Huergo - Live At The Regattabar
DYEAR=2002
DGENRE=Contemporary Jazz
TTITLE0=Chacarera para el Diego
TTITLE1=Che
TTITLE2=Lucero
TTITLE3=Esperanza
TTITLE4=Serrana
TTITLE5=El Tren de las Nubes
TTITLE6=Elusive Happiness
TTITLE7=Espejos
EXTD=YEAR: 2004
EXTT0=
EXTT1=
EXTT2=
EXTT3=
EXTT4=
EXTT5=
EXTT6=
EXTT7=
PLAYORDER=
